HIERARCHY
ROOT Bip001_Pelvis
{
  OFFSET 34.4345 95.6767 -26.8758
  CHANNELS 6 Xposition Yposition Zposition Zrotation Xrotation Yrotation
  JOINT Bip001_Spine
  {
    OFFSET 1.4188e-005 10.2191 -0.0116013
    CHANNELS 3 Zrotation Xrotation Yrotation
    JOINT Bip001_L_Thigh
    {
      OFFSET 11.0458 -10.2192 0.0116197
      CHANNELS 3 Zrotation Xrotation Yrotation
      JOINT Bip001_L_Calf
      {
        OFFSET -0.707118 -44.0221 0.360014
        CHANNELS 3 Zrotation Xrotation Yrotation
        JOINT Bip001_L_Foot
        {
          OFFSET -0.651902 -40.5938 -3.56146
          CHANNELS 3 Zrotation Xrotation Yrotation
          JOINT Bip001_L_Toe0
          {
            OFFSET 0.0530839 -10.2181 13.1504
            CHANNELS 3 Zrotation Xrotation Yrotation
            End Site
            {
              OFFSET -1.02532e-005 0 7.55606
            }
          }
        }
      }
    }
    JOINT Bip001_R_Thigh
    {
      OFFSET -11.0458 -10.2191 0.0115893
      CHANNELS 3 Zrotation Xrotation Yrotation
      JOINT Bip001_R_Calf
      {
        OFFSET 0.706994 -44.0221 0.35984
        CHANNELS 3 Zrotation Xrotation Yrotation
        JOINT Bip001_R_Foot
        {
          OFFSET 0.651786 -40.5938 -3.5613
          CHANNELS 3 Zrotation Xrotation Yrotation
          JOINT Bip001_R_Toe0
          {
            OFFSET -0.0531479 -10.2181 13.1504
            CHANNELS 3 Zrotation Xrotation Yrotation
            End Site
            {
              OFFSET -1.02894e-005 0 7.55606
            }
          }
        }
      }
    }
    JOINT Bip001_Spine1
    {
      OFFSET 1.87041e-005 14.5736 1.08638
      CHANNELS 3 Zrotation Xrotation Yrotation
      JOINT Bip001_Spine2
      {
        OFFSET 2.24614e-005 14.5058 -1.69078
        CHANNELS 3 Zrotation Xrotation Yrotation
        JOINT Bip001_Neck
        {
          OFFSET 2.20278e-005 15.3945 -0.489414
          CHANNELS 3 Zrotation Xrotation Yrotation
          JOINT Bip001_L_Clavicle
          {
            OFFSET 6.06036 -0.000579998 0.00836775
            CHANNELS 3 Zrotation Xrotation Yrotation
            JOINT Bip001_L_UpperArm
            {
              OFFSET 11.5509 -0.0600302 0.00193952
              CHANNELS 3 Zrotation Xrotation Yrotation
              JOINT Bip001_L_Forearm
              {
                OFFSET 25.9523 0.0806089 -2.15551
                CHANNELS 3 Zrotation Xrotation Yrotation
                JOINT Bip001_L_Hand
                {
                  OFFSET 32.2475 0.153767 1.63968
                  CHANNELS 3 Zrotation Xrotation Yrotation
                  JOINT Bip001_L_Finger0
                  {
                    OFFSET 6.04639 -2.20976 5.90322
                    CHANNELS 3 Zrotation Xrotation Yrotation
                    End Site
                    {
                      OFFSET 4.22375 -1.43895 0.606485
                    }
                  }
                  JOINT Bip001_L_Finger1
                  {
                    OFFSET 11.0826 -0.704819 -0.198153
                    CHANNELS 3 Zrotation Xrotation Yrotation
                    End Site
                    {
                      OFFSET 6.20027 -0.397518 -0.0787166
                    }
                  }
                }
              }
            }
          }
          JOINT Bip001_R_Clavicle
          {
            OFFSET -6.06037 -0.000563197 0.00835105
            CHANNELS 3 Zrotation Xrotation Yrotation
            JOINT Bip001_R_UpperArm
            {
              OFFSET -11.5509 -0.0599978 0.00190698
              CHANNELS 3 Zrotation Xrotation Yrotation
              JOINT Bip001_R_Forearm
              {
                OFFSET -25.9523 0.0806822 -2.15589
                CHANNELS 3 Zrotation Xrotation Yrotation
                JOINT Bip001_R_Hand
                {
                  OFFSET -32.2475 0.153859 1.63989
                  CHANNELS 3 Zrotation Xrotation Yrotation
                  JOINT Bip001_R_Finger0
                  {
                    OFFSET -6.04641 -2.20976 5.90317
                    CHANNELS 3 Zrotation Xrotation Yrotation
                    End Site
                    {
                      OFFSET -4.22376 -1.43895 0.60647
                    }
                  }
                  JOINT Bip001_R_Finger1
                  {
                    OFFSET -11.0826 -0.704794 -0.198182
                    CHANNELS 3 Zrotation Xrotation Yrotation
                    End Site
                    {
                      OFFSET -6.20028 -0.397504 -0.0787333
                    }
                  }
                }
              }
            }
          }
          JOINT Bip001_Head
          {
            OFFSET 1.09673e-005 11.2744 2.05948
            CHANNELS 3 Zrotation Xrotation Yrotation
            End Site
            {
              OFFSET 2.89576e-005 20.8808 -2.77728e-005
            }
          }
        }
      }
    }
  }
}
MOTION
Frames:	8
Frame Time:	0.04
34.3537 95.8967 -27.0892 -0.0861184 -1.04106 1.07777 -0.0687198 2.145 -0.665911 4.7849 -1.1792 9.64034 -0.717945 7.36988 -8.5131 3.6536 -5.17499 -0.00311554 1.20361 -4.43112 -0.619116 -3.55748 -0.938582 -1.66867 -0.396303 8.92499 0.282499 -5.14656 -8.97755 3.17275 2.39256 -8.06809 2.46931 -0.112591 4.29063 -1.33065 -0.112591 4.29065 -1.33065 0.482029 -6.93962 -1.34708 -24.3617 8.417 -1.26215 -58.244 41.7515 5.51485 13.244 -7.80741 -24.6785 7.75089 0.836917 -2.17952 8.82781e-032 3.18055e-015 -1.59028e-015 8.82782e-032 3.18056e-015 -1.59028e-015 23.6165 14.5239 19.8636 60.8614 34.9372 -6.64542 -16.8112 -3.8141 15.5036 -5.39405 1.16725 0.849244 0 0 -3.18055e-015 1.59028e-015 3.18056e-015 -4.77083e-015 0.483671 -4.89294 -1.2827 
34.2978 95.8988 -27.1024 -0.175166 -0.958001 1.1832 -0.0424471 2.12855 -0.694027 4.88527 -1.33062 9.37685 -0.72396 7.47377 -8.33029 3.62758 -5.19451 -0.00311563 1.2026 -4.44645 -0.630085 -3.45216 -0.939282 -1.45779 -0.335677 8.79675 0.280651 -5.23517 -8.88585 2.88955 2.39156 -8.04517 2.46917 -0.0591432 4.25747 -1.38791 -0.0591433 4.2575 -1.38791 0.458628 -6.97763 -1.36672 -24.3249 8.44751 -1.21333 -58.2524 41.7432 5.49969 13.2861 -7.70519 -24.6783 7.75189 0.856407 -2.20625 -6.36111e-015 -3.18055e-015 3.18055e-015 -6.36111e-015 -6.36111e-015 3.18055e-015 23.5928 14.5501 19.8713 60.9753 34.9243 -6.72198 -16.9022 -4.00157 15.6496 -5.41975 1.15972 0.868964 -1.59028e-015 -6.36111e-015 3.18055e-015 -3.18055e-015 0 3.18055e-015 0.43418 -4.91788 -1.29953 
34.3572 95.9028 -27.0511 0.142777 -0.976602 0.773135 -0.109433 2.13511 -0.617606 4.45032 -0.912954 9.96976 -0.540407 6.82146 -8.62772 3.70582 -4.85464 -0.0155858 1.24833 -4.54595 -0.680213 -3.81317 -1.20537 -1.03897 -0.20651 9.30504 0.23461 -5.251 -9.11793 2.81192 2.39113 -8.03525 2.46911 -0.19601 4.27126 -1.23241 -0.19601 4.27124 -1.23241 0.459304 -6.97768 -1.34043 -24.3254 8.45664 -1.22199 -58.2404 41.7678 5.4759 13.3012 -7.6605 -24.6956 7.73817 0.80938 -2.24155 0 6.36111e-015 -0 3.18055e-015 0 1.59028e-015 23.6625 14.5482 19.8028 60.979 34.8708 -6.91313 -16.9603 -4.23091 16.0031 -5.37018 1.30149 1.00461 0 9.54166e-015 -0 -3.18055e-015 6.36111e-015 3.18055e-015 0.406585 -4.98454 -1.26914 
34.4199 95.9023 -27.0985 0.393187 -0.741134 0.54888 -0.162477 2.08742 -0.569213 4.07481 -0.912666 9.89039 -0.399364 6.38948 -8.44015 3.77483 -4.53905 -0.0270216 1.24558 -4.61016 -0.6699 -4.1213 -1.6874 -0.738929 -0.0573185 9.77197 0.158045 -5.27997 -9.28373 2.72826 2.39163 -8.04685 2.46918 -0.304483 4.17635 -1.13363 -0.304483 4.17636 -1.13363 0.486716 -7.00581 -1.33922 -24.3237 8.48248 -1.24221 -58.271 41.8076 5.47791 13.2675 -7.73641 -24.6764 7.75675 0.793473 -2.25979 6.36111e-015 -6.36111e-015 -3.18055e-015 -5.29669e-031 -9.54167e-015 -3.18055e-015 23.6934 14.5805 19.7764 61.124 34.8643 -7.21553 -17.0842 -4.5138 16.2653 -5.32492 1.38521 1.11723 4.77083e-015 6.36111e-015 -0 6.36111e-015 9.54167e-015 -0 0.368168 -4.86664 -1.25977 
34.4732 95.907 -27.1507 0.591247 -0.536757 0.389745 -0.205609 2.04227 -0.535818 3.79848 -0.951434 9.76288 -0.295048 6.09529 -8.15201 3.63825 -4.43619 -0.0285087 1.24357 -4.55388 -0.64654 -4.36364 -2.0851 -0.346279 0.102131 10.1256 0.0459898 -5.34172 -9.37646 2.5229 2.39161 -8.04683 2.46905 -0.392465 4.08635 -1.06532 -0.392462 4.08636 -1.06531 0.464441 -6.94307 -1.33863 -24.3163 8.42641 -1.28391 -58.2528 41.7317 5.47064 13.2789 -7.69348 -24.6811 7.77984 0.793374 -2.2718 -6.36111e-015 -3.18055e-015 4.77083e-015 -3.18055e-015 -6.36111e-015 3.18055e-015 23.7481 14.5351 19.8146 61.3019 34.8457 -7.61106 -17.2408 -4.77822 16.5658 -5.28268 1.54844 1.1873 4.77083e-015 -6.36111e-015 -3.18055e-015 1.59028e-015 -9.54167e-015 -3.18055e-015 0.377506 -4.8812 -1.25989 
34.2677 95.8932 -26.8734 0.0556008 -1.20099 0.82108 -0.0895209 2.17003 -0.610383 4.61818 -0.655215 10.2598 -0.556604 6.9241 -8.96497 3.57016 -5.06223 -0.0032011 1.22192 -4.49765 -0.666146 -3.64612 -0.798356 -1.30863 -0.323401 9.11593 0.238152 -5.20449 -9.15278 3.0091 2.39125 -8.0467 2.46651 -0.155836 4.3409 -1.2184 -0.15593 4.34089 -1.21855 0.454552 -6.93345 -1.3423 -24.3227 8.4169 -1.27318 -58.2333 41.6169 5.46062 13.2737 -7.63584 -24.686 7.81072 0.780317 -2.29313 -7.06225e-031 -6.36111e-015 -6.36111e-015 -4.41391e-031 -3.18056e-015 -7.95139e-015 23.6026 14.5319 19.9367 61.6267 34.5414 -8.04366 -17.4555 -5.27719 16.8811 -5.00506 1.74312 1.4012 -3.18055e-015 0 -0 -3.18055e-015 0 1.59028e-015 0.348345 -4.88343 -1.26026 
34.2642 95.8983 -26.8489 0.110156 -1.14427 0.787166 -0.0888415 2.16365 -0.609754 4.57326 -0.654079 10.3182 -0.536492 6.87879 -8.86739 3.22066 -5.23942 0.00349128 1.15892 -4.24174 -0.646737 -3.69695 -0.876736 -1.31335 -0.335422 9.1909 0.25982 -5.21123 -9.18836 3.03081 2.38899 -8.03745 2.45319 -0.15467 4.33259 -1.21316 -0.154723 4.3326 -1.21327 0.49126 -6.93372 -1.36041 -24.3682 8.40089 -1.23918 -58.2314 41.5631 5.49283 13.2547 -7.61728 -24.6883 7.8898 0.737707 -2.30588 3.18055e-015 -3.18055e-015 -3.18055e-015 3.18055e-015 -6.36111e-015 -0 23.6118 14.5406 19.9359 61.8029 34.3316 -8.59856 -17.6207 -5.45516 17.3565 -5.12615 1.91099 1.53865 0 0 -1.59028e-015 0 0 -1.59028e-015 0.316978 -4.89235 -1.26107 
34.2624 95.8906 -26.8213 0.144156 -1.12583 0.790751 -0.0886523 2.15328 -0.608581 4.53268 -0.625708 10.3442 -0.545776 6.83587 -8.90393 3.4128 -5.10539 -0.00307904 1.28173 -4.38265 -0.709904 -3.7274 -0.899506 -1.40091 -0.359409 9.2708 0.278864 -5.21614 -9.25851 3.08475 2.39654 -8.05531 2.45993 -0.155121 4.30673 -1.20387 -0.155129 4.30672 -1.2038 0.383422 -7.0479 -1.3659 -24.2468 8.49997 -1.16661 -58.299 41.6617 5.52224 13.269 -7.60317 -24.6238 7.88326 0.728656 -2.33209 6.36111e-015 -6.36111e-015 -6.36111e-015 3.18055e-015 -3.18056e-015 -4.77083e-015 23.6916 14.6515 19.9294 62.15 33.7279 -9.31289 -18.2019 -4.97231 17.955 -5.37993 2.07565 1.83104 6.36111e-015 9.54166e-015 1.59028e-015 6.36111e-015 1.27222e-014 -0 0.415972 -4.70606 -1.31313 
